<svg xmlns="http://www.w3.org/2000/svg" width="1000" height="145.18" viewBox="0 0 1000 145.18">
  <g id="asphaltgold-logo-desktop" transform="translate(0 -93)">
    <path id="Pfad_1" data-name="Pfad 1" d="M129.19,170.18h-.26l-6,30.37h12.2Zm35.95,66.44h-20l-4.94-17.91h-22l-4.68,17.91h-20l26.21-94H137.9Z" fill="#fff"/>
    <path id="Pfad_2" data-name="Pfad 2" d="M184.35,207c.26,9.22,3.63,13.76,12.2,13.76,7.26,0,11.16-4.41,11.16-11.16,0-15.83-41.53-8-41.53-39.45,0-17.78,11.16-29.06,29.46-29.06,17.78,0,27.64,8.3,30.49,26.73h-19.2c-.26-6.36-4.15-10.38-10.51-10.38s-10,4.54-10,10.25c0,16.74,41.52,6.61,41.52,42.17,0,17.52-13.49,28.29-31.79,28.29-21.93,0-31.53-11.55-31.53-31.15Z" fill="#fff"/>
    <path id="Pfad_3" data-name="Pfad 3" d="M256,185.75h7.27c7.65,0,11.41-3.76,11.41-12.45s-3.76-12.46-11.41-12.46H256Zm7.53-43.08c18.16,0,31.4,10.9,31.4,30.63s-13.24,30.62-31.4,30.62H256v32.7H236.27v-94Z" fill="#fff"/>
    <path id="Pfad_4" data-name="Pfad 4" d="M302.32,236.62V142.67h19.73v35.55h23.48V142.67h19.73v93.95H345.53V196.39H322.05v40.23Z" fill="#fff"/>
    <path id="Pfad_5" data-name="Pfad 5" d="M405.49,170.18h-.26l-6,30.37h12.2Zm35.95,66.44h-20l-4.93-17.91H394.46l-4.67,17.91h-20l26.22-94h18.17Z" fill="#fff"/>
    <path id="Pfad_6" data-name="Pfad 6" d="M445.6,142.67h19.72v75.78H490.5v18.17H445.6Z" fill="#fff"/>
    <path id="Pfad_7" data-name="Pfad 7" d="M520.48,160.84v75.78H500.76V160.84H484.67V142.67h51.9v18.17Z" fill="#fff"/>
    <path id="Pfad_8" data-name="Pfad 8" d="M587.83,175.89c-.13-9.08-4.93-16.61-14.53-16.61-7.52,0-14.53,8.05-14.53,30.37s7,30.36,14.53,30.36c11.29,0,14.66-9.08,14.53-16.61H571.35V185.23h36.72v18.43c0,19.46-12.71,34.52-34.77,34.52-21,0-34.77-15.84-34.77-48.53s13.75-48.54,34.77-48.54c20,0,33.48,13.5,34.77,34.78Z" fill="#fff"/>
    <path id="Pfad_9" data-name="Pfad 9" d="M649.87,220c10.12,0,15-8.3,15-30.36s-4.93-30.36-15-30.36-15,8.3-15,30.36,4.93,30.36,15,30.36m0-78.89c23.62,0,35.29,19.2,35.29,48.53s-11.67,48.53-35.29,48.53-35.3-19.21-35.3-48.53,11.68-48.53,35.3-48.53" fill="#fff"/>
    <path id="Pfad_10" data-name="Pfad 10" d="M693.48,142.67H713.2v75.78h25.18v18.17h-44.9Z" fill="#fff"/>
    <path id="Pfad_11" data-name="Pfad 11" d="M764.59,218.45h9.61c11.29,0,17.25-11.67,17.25-28.81s-6-28.8-17.25-28.8h-9.61Zm-19.72-75.78h29.58c24.27,0,37.24,21.28,37.24,47s-13,47-37.24,47H744.87Z" fill="#fff"/>
    <rect id="Rechteck_1" data-name="Rechteck 1" width="46.45" height="18.22" transform="translate(833.67 142.64)" fill="#fff"/>
    <rect id="Rechteck_2" data-name="Rechteck 2" width="46.46" height="18.22" transform="translate(838.961 133.543) rotate(-60)" fill="#fff"/>
    <rect id="Rechteck_3" data-name="Rechteck 3" width="18.22" height="46.46" transform="matrix(0.866, -0.5, 0.5, 0.866, 867.386, 120.578)" fill="#fff"/>
    <rect id="Rechteck_4" data-name="Rechteck 4" width="1000" height="145" transform="translate(0 93)" opacity="0"/>
  </g>
</svg>